<svg width="200" height="49" viewBox="0 0 200 49" fill="none" xmlns="http://www.w3.org/2000/svg">
<path d="M10 0.5H190C195.247 0.5 199.5 4.75329 199.5 10V38.8281C199.5 44.0748 195.247 48.3281 190 48.3281H10C4.7533 48.3281 0.5 44.0748 0.5 38.8281V10C0.5 4.7533 4.7533 0.5 10 0.5Z" fill="white" stroke="#E3E3E3"/>
<path d="M62.5378 18.4284H72.7078V19.6344H62.5378V18.4284ZM60.7018 25.4124H75.4078V26.6364H60.7018V25.4124ZM67.2718 26.2224H68.7658V33.6564H67.2718V26.2224ZM72.0058 18.4284H73.4638V19.8324C73.4638 21.5244 73.4638 23.4324 72.8518 26.1864L71.3758 25.9884C72.0058 23.3604 72.0058 21.4704 72.0058 19.8324V18.4284ZM79.1324 18.0504H89.6084V19.2564H79.1324V18.0504ZM77.2604 23.4144H92.0024V24.6384H77.2604V23.4144ZM88.6364 18.0504H90.0944V19.0944C90.0944 20.2644 90.0944 21.7764 89.6624 23.7924L88.2044 23.6304C88.6364 21.6504 88.6364 20.2464 88.6364 19.0944V18.0504ZM78.9884 26.2404H90.1484V30.3804H80.5184V32.6484H79.0244V29.2284H88.6724V27.4464H78.9884V26.2404ZM79.0244 32.2524H90.5624V33.4584H79.0244V32.2524ZM93.8189 30.3984H108.561V31.6404H93.8189V30.3984ZM100.407 26.9064H101.901V30.9204H100.407V26.9064ZM95.6009 18.5724H106.743V23.5044H97.1309V26.7624H95.6549V22.2984H105.267V19.7784H95.6009V18.5724ZM95.6549 26.1324H107.121V27.3564H95.6549V26.1324ZM114.86 30.3984H129.602V31.6404H114.86V30.3984ZM121.448 26.9064H122.942V30.9204H121.448V26.9064ZM116.642 18.5724H127.784V23.5044H118.172V26.7624H116.696V22.2984H126.308V19.7784H116.642V18.5724ZM116.696 26.1324H128.162V27.3564H116.696V26.1324ZM133.003 19.0944H143.479V20.3004H133.003V19.0944ZM131.419 30.0204H146.125V31.2624H131.419V30.0204ZM142.687 19.0944H144.145V20.7144C144.145 22.8024 144.145 25.1244 143.533 28.6344L142.039 28.4904C142.687 25.1604 142.687 22.7304 142.687 20.7144V19.0944ZM159.803 17.3844H161.315V29.2644H159.803V17.3844ZM150.857 32.0544H161.801V33.2784H150.857V32.0544ZM150.857 28.0404H152.333V32.4684H150.857V28.0404ZM152.585 18.5004C155.015 18.5004 156.815 20.1564 156.815 22.5144C156.815 24.8544 155.015 26.5284 152.585 26.5284C150.155 26.5284 148.337 24.8544 148.337 22.5144C148.337 20.1564 150.155 18.5004 152.585 18.5004ZM152.585 19.7964C151.001 19.7964 149.795 20.9124 149.795 22.5144C149.795 24.0984 151.001 25.2144 152.585 25.2144C154.169 25.2144 155.375 24.0984 155.375 22.5144C155.375 20.9124 154.169 19.7964 152.585 19.7964Z" fill="black" fill-opacity="0.54"/>
<path fill-rule="evenodd" clip-rule="evenodd" d="M37.5 25.2219C37.5 24.5295 37.4379 23.8636 37.3224 23.2244H28.125V27.0019H33.3807C33.1543 28.2227 32.4663 29.2569 31.432 29.9494V32.3997H34.5881C36.4347 30.6996 37.5 28.196 37.5 25.2219Z" fill="#4285F4"/>
<path fill-rule="evenodd" clip-rule="evenodd" d="M28.125 34.7656C30.7617 34.7656 32.9723 33.8912 34.5881 32.3997L31.432 29.9494C30.5575 30.5353 29.4389 30.8816 28.125 30.8816C25.5815 30.8816 23.4286 29.1637 22.6607 26.8555H19.3981V29.3857C21.005 32.5772 24.3075 34.7656 28.125 34.7656Z" fill="#34A853"/>
<path fill-rule="evenodd" clip-rule="evenodd" d="M22.6607 26.8555C22.4654 26.2695 22.3544 25.6436 22.3544 25C22.3544 24.3564 22.4654 23.7305 22.6607 23.1445V20.6143H19.3981C18.7367 21.9327 18.3594 23.4242 18.3594 25C18.3594 26.5758 18.7367 28.0673 19.3981 29.3857L22.6607 26.8555Z" fill="#FBBC05"/>
<path fill-rule="evenodd" clip-rule="evenodd" d="M28.125 19.1184C29.5588 19.1184 30.846 19.6112 31.8581 20.5788L34.6591 17.7779C32.9679 16.2021 30.7573 15.2344 28.125 15.2344C24.3075 15.2344 21.005 17.4228 19.3981 20.6143L22.6607 23.1445C23.4286 20.8363 25.5815 19.1184 28.125 19.1184Z" fill="#EA4335"/>
</svg>
