<svg width="550" height="127" viewBox="0 0 550 127" fill="none" xmlns="http://www.w3.org/2000/svg">
<path d="M7.39 91.58C0.18 89.48 3.82 80.66 5.08 75.48C6.76 68.55 8.86 61.69 11.1 54.9C12.99 49.16 16.21 45.24 22.72 45.03C30.07 44.89 31.4 53.5 33.36 59.1L41.55 82.13C42.67 85.21 42.95 87.52 40.22 89.76C37.49 91.93 34.9 91.79 32.94 88.92C31.54 86.89 31.19 82.41 29.3 80.8C28.95 80.52 19.15 79.75 18.03 80.59C16 82.27 16.56 87.8 14.74 90.04C13.06 92.14 9.91 92.35 7.39 91.58ZM21.25 70.65C22.51 70.44 23.77 70.16 25.03 69.95C24.4 68.06 23.77 66.24 23.21 64.35C22.58 66.45 21.88 68.55 21.25 70.65ZM48.6058 101.8C43.9158 96.62 44.2658 77.23 45.0358 67.43C45.3858 62.95 45.4558 43.42 55.0458 46.85C59.7358 48.74 55.8158 61.27 55.1158 64.77C53.0158 75.2 54.7658 87.52 55.1158 96.76C55.2558 99.77 52.1758 105.86 48.6058 101.8ZM64.9437 101.8C60.2537 96.62 60.6037 77.23 61.3737 67.43C61.7237 62.95 61.7937 43.42 71.3837 46.85C76.0737 48.74 72.1537 61.27 71.4537 64.77C69.3537 75.2 71.1037 87.52 71.4537 96.76C71.5937 99.77 68.5137 105.86 64.9437 101.8ZM131.332 89.62C122.022 98.72 118.102 79.19 117.122 74.01C116.002 74.36 111.662 74.71 110.892 75.55C110.262 76.25 110.332 78.7 110.122 79.61C109.492 82.34 108.862 85.28 107.042 87.52C103.402 91.93 97.4516 90.6 95.4916 85.35C93.3916 79.61 95.8416 71.35 96.2616 65.47C96.6816 59.03 95.9116 52.03 96.9616 45.8C98.8516 34.11 120.272 37.96 127.202 42.51C137.072 48.95 135.252 60.5 127.342 67.85C130.772 73.03 137.212 83.81 131.332 89.62ZM109.772 65.26C112.432 64.21 115.092 63.09 117.472 61.41C123.562 57.14 117.822 52.45 112.642 52.73C110.542 52.8 109.212 52.73 108.652 54.62C107.812 57.21 109.492 62.46 109.772 65.26ZM144.339 88.85C133.279 86.89 134.469 71.07 140.629 64.56C143.709 61.27 148.889 59.38 153.369 60.71C158.059 62.11 161.839 68.06 158.059 72.33C156.309 74.29 153.439 75.06 150.919 75.55C148.399 76.04 145.179 75.27 144.969 78.91C144.619 85.21 152.179 77.51 153.649 76.88C159.529 74.36 158.339 82.97 155.889 85.42C152.949 88.36 148.329 89.55 144.339 88.85ZM148.959 71.14C150.359 71.63 153.719 70.44 153.089 68.97C151.339 68.69 149.729 69.46 148.959 71.14ZM171.862 91.72C168.012 90.46 166.752 85.28 165.702 81.85C164.232 77.02 157.862 58.96 165.142 56.23C172.002 53.71 174.522 71.84 175.572 75.55C175.782 73.94 177.602 54.41 183.622 60.08C186.072 62.39 183.762 69.46 183.202 72.19C182.152 76.81 180.822 81.5 179.142 85.98C178.022 89.06 175.852 93.05 171.862 91.72ZM192.678 91.23C187.288 94.94 187.078 84.16 186.938 81.78C186.798 78.63 187.008 75.34 187.218 72.19C187.358 69.67 186.938 65.82 188.898 64C194.358 58.75 195.058 69.95 195.338 72.82C195.758 76.67 195.408 80.38 194.848 84.23C194.498 86.19 194.568 89.9 192.678 91.23ZM187.568 58.75C185.398 54.69 189.948 49.86 193.028 54.41C196.108 58.89 190.228 63.58 187.568 58.75ZM205.999 88.85C194.939 86.89 196.129 71.07 202.289 64.56C205.369 61.27 210.549 59.38 215.029 60.71C219.719 62.11 223.499 68.06 219.719 72.33C217.969 74.29 215.099 75.06 212.579 75.55C210.059 76.04 206.839 75.27 206.629 78.91C206.279 85.21 213.839 77.51 215.309 76.88C221.189 74.36 219.999 82.97 217.549 85.42C214.609 88.36 209.989 89.55 205.999 88.85ZM210.619 71.14C212.019 71.63 215.379 70.44 214.749 68.97C212.999 68.69 211.389 69.46 210.619 71.14ZM248.712 91.09C245.912 90.18 243.952 85.21 243.112 82.9C240.452 87.24 234.152 96.34 229.252 89.55C225.612 84.58 224.212 76.74 223.512 70.79C223.162 67.43 223.092 54.76 229.952 59.73C232.472 61.55 233.172 65.47 233.732 68.34C234.572 72.33 235.272 76.32 235.902 80.31C237.162 78.14 239.332 74.85 241.782 73.87C244.862 72.61 245.702 75.27 247.102 77.58C247.312 73.03 246.822 67.64 248.712 63.37C249.902 60.71 253.682 57.49 256.272 60.71C258.582 63.51 257.602 69.6 257.322 72.96C256.972 76.95 256.482 81.15 255.012 84.93C254.102 87.31 252.002 92.14 248.712 91.09ZM302.436 121.33C293.476 126.44 292.846 93.61 294.246 88.92C289.556 93.4 283.046 91.79 280.106 86.4C277.376 81.5 276.886 74.78 277.726 69.32C278.356 65.54 281.996 53.78 288.156 58.26C291.096 60.36 288.506 64.56 287.876 67.22C287.246 70.16 286.546 73.8 287.176 76.81C288.786 84.37 294.666 71.14 295.856 69.6C297.186 67.92 298.796 65.89 301.106 67.15C303.836 68.69 303.206 74.22 303.346 76.81C303.906 84.72 304.116 92.7 304.116 100.61C304.186 104.18 303.906 107.82 304.116 111.32C304.256 114.68 304.606 118.46 302.436 121.33ZM325.051 89.48C318.051 94.87 309.791 91.02 307.341 83.11C305.171 75.83 306.361 66.38 312.451 61.27C317.771 56.86 329.041 57.28 329.461 65.96C332.471 73.38 331.771 84.23 325.051 89.48ZM322.391 80.03C324.491 79.54 324.211 72.61 324.071 71.42C323.231 72.12 322.391 73.1 321.971 74.01C320.151 77.65 319.731 80.66 322.391 80.03ZM358.776 99.07C353.246 107.82 350.096 92.42 349.886 88.71C341.766 96.62 334.416 88.15 333.506 79.54C333.086 75.2 332.946 70.51 333.996 66.24C334.906 62.95 338.616 55.88 342.956 59.31C346.036 61.76 342.886 68.9 342.606 72.12C342.396 74.71 342.186 82.83 346.386 78.49C349.186 75.62 349.396 70.58 352.966 68.27C357.726 65.19 360.526 71.84 360.876 75.55C361.156 79.96 360.666 84.3 360.526 88.64C360.456 92.14 360.666 96.06 358.776 99.07ZM389.14 96.83C386.06 93.19 385.57 86.68 384.73 82.2C384.17 79.26 383.61 75.55 379.76 75.9C377.59 76.11 375.84 77.65 374.37 79.12C372.34 81.01 372.62 81.92 372.62 84.51C372.48 88.22 370.38 95.01 365.83 90.32C362.54 86.96 362.96 80.24 363.24 75.97C363.52 71.42 364.29 65.33 367.51 61.83C372.34 56.51 373.46 66.31 373.53 69.6C379.06 64.21 387.32 62.39 391.1 70.44C394.18 77.02 394.74 85.84 394.74 92.91C394.74 96.41 392.71 101.17 389.14 96.83ZM402.538 86.47C393.858 77.79 396.098 63.16 403.028 54.2C406.388 49.79 416.398 40.34 422.138 45.87C426.058 49.72 425.428 55.04 420.528 56.51C414.158 58.4 408.768 63.72 408.418 70.72C408.278 74.29 409.678 78.07 412.968 79.75C414.718 80.59 418.708 81.29 420.038 79.19C421.718 76.46 418.008 77.09 416.678 75.62C415.138 74.01 415.068 70.37 416.048 68.41C419.128 62.18 430.398 66.31 432.008 71.98C437.118 90.18 414.438 98.3 402.538 86.47Z" fill="#1E1E1E"/>
<path d="M427 25.7878C427 25.7878 440.837 25.7947 441.836 25.7878C448.343 25.743 454.857 25.7456 461.364 25.7878C476.019 25.883 492.644 26.1518 504.294 36.4397C510.811 42.1942 516.252 51.6537 514.623 60.6484C512.213 73.959 491.766 80.0024 480.489 81.1047C472.326 81.9026 455.979 81.647 453.052 71.502C450.022 60.9955 462.013 49.8011 468.506 43.5005C488.999 23.614 517.844 8.72187 546.175 4" stroke="#1E1E1E" stroke-width="7" stroke-linecap="round"/>
</svg>
