<svg width="444" height="118" viewBox="0 0 444 118" fill="none" xmlns="http://www.w3.org/2000/svg">
<path d="M7.39 93.58C0.18 91.48 3.82 82.66 5.08 77.48C6.76 70.55 8.86 63.69 11.1 56.9C12.99 51.16 16.21 47.24 22.72 47.03C30.07 46.89 31.4 55.5 33.36 61.1L41.55 84.13C42.67 87.21 42.95 89.52 40.22 91.76C37.49 93.93 34.9 93.79 32.94 90.92C31.54 88.89 31.19 84.41 29.3 82.8C28.95 82.52 19.15 81.75 18.03 82.59C16 84.27 16.56 89.8 14.74 92.04C13.06 94.14 9.91 94.35 7.39 93.58ZM21.25 72.65C22.51 72.44 23.77 72.16 25.03 71.95C24.4 70.06 23.77 68.24 23.21 66.35C22.58 68.45 21.88 70.55 21.25 72.65ZM48.6058 103.8C43.9158 98.62 44.2658 79.23 45.0358 69.43C45.3858 64.95 45.4558 45.42 55.0458 48.85C59.7358 50.74 55.8158 63.27 55.1158 66.77C53.0158 77.2 54.7658 89.52 55.1158 98.76C55.2558 101.77 52.1758 107.86 48.6058 103.8ZM64.9437 103.8C60.2537 98.62 60.6037 79.23 61.3737 69.43C61.7237 64.95 61.7937 45.42 71.3837 48.85C76.0737 50.74 72.1537 63.27 71.4537 66.77C69.3537 77.2 71.1037 89.52 71.4537 98.76C71.5937 101.77 68.5137 107.86 64.9437 103.8ZM131.332 91.62C122.022 100.72 118.102 81.19 117.122 76.01C116.002 76.36 111.662 76.71 110.892 77.55C110.262 78.25 110.332 80.7 110.122 81.61C109.492 84.34 108.862 87.28 107.042 89.52C103.402 93.93 97.4516 92.6 95.4916 87.35C93.3916 81.61 95.8416 73.35 96.2616 67.47C96.6816 61.03 95.9116 54.03 96.9616 47.8C98.8516 36.11 120.272 39.96 127.202 44.51C137.072 50.95 135.252 62.5 127.342 69.85C130.772 75.03 137.212 85.81 131.332 91.62ZM109.772 67.26C112.432 66.21 115.092 65.09 117.472 63.41C123.562 59.14 117.822 54.45 112.642 54.73C110.542 54.8 109.212 54.73 108.652 56.62C107.812 59.21 109.492 64.46 109.772 67.26ZM144.339 90.85C133.279 88.89 134.469 73.07 140.629 66.56C143.709 63.27 148.889 61.38 153.369 62.71C158.059 64.11 161.839 70.06 158.059 74.33C156.309 76.29 153.439 77.06 150.919 77.55C148.399 78.04 145.179 77.27 144.969 80.91C144.619 87.21 152.179 79.51 153.649 78.88C159.529 76.36 158.339 84.97 155.889 87.42C152.949 90.36 148.329 91.55 144.339 90.85ZM148.959 73.14C150.359 73.63 153.719 72.44 153.089 70.97C151.339 70.69 149.729 71.46 148.959 73.14ZM171.862 93.72C168.012 92.46 166.752 87.28 165.702 83.85C164.232 79.02 157.862 60.96 165.142 58.23C172.002 55.71 174.522 73.84 175.572 77.55C175.782 75.94 177.602 56.41 183.622 62.08C186.072 64.39 183.762 71.46 183.202 74.19C182.152 78.81 180.822 83.5 179.142 87.98C178.022 91.06 175.852 95.05 171.862 93.72ZM192.678 93.23C187.288 96.94 187.078 86.16 186.938 83.78C186.798 80.63 187.008 77.34 187.218 74.19C187.358 71.67 186.938 67.82 188.898 66C194.358 60.75 195.058 71.95 195.338 74.82C195.758 78.67 195.408 82.38 194.848 86.23C194.498 88.19 194.568 91.9 192.678 93.23ZM187.568 60.75C185.398 56.69 189.948 51.86 193.028 56.41C196.108 60.89 190.228 65.58 187.568 60.75ZM205.999 90.85C194.939 88.89 196.129 73.07 202.289 66.56C205.369 63.27 210.549 61.38 215.029 62.71C219.719 64.11 223.499 70.06 219.719 74.33C217.969 76.29 215.099 77.06 212.579 77.55C210.059 78.04 206.839 77.27 206.629 80.91C206.279 87.21 213.839 79.51 215.309 78.88C221.189 76.36 219.999 84.97 217.549 87.42C214.609 90.36 209.989 91.55 205.999 90.85ZM210.619 73.14C212.019 73.63 215.379 72.44 214.749 70.97C212.999 70.69 211.389 71.46 210.619 73.14ZM248.712 93.09C245.912 92.18 243.952 87.21 243.112 84.9C240.452 89.24 234.152 98.34 229.252 91.55C225.612 86.58 224.212 78.74 223.512 72.79C223.162 69.43 223.092 56.76 229.952 61.73C232.472 63.55 233.172 67.47 233.732 70.34C234.572 74.33 235.272 78.32 235.902 82.31C237.162 80.14 239.332 76.85 241.782 75.87C244.862 74.61 245.702 77.27 247.102 79.58C247.312 75.03 246.822 69.64 248.712 65.37C249.902 62.71 253.682 59.49 256.272 62.71C258.582 65.51 257.602 71.6 257.322 74.96C256.972 78.95 256.482 83.15 255.012 86.93C254.102 89.31 252.002 94.14 248.712 93.09Z" fill="#1E1E1E"/>
<path d="M259 25.7878C259 25.7878 272.837 25.7947 273.836 25.7878C280.343 25.743 286.857 25.7456 293.364 25.7878C308.019 25.883 324.644 26.1518 336.294 36.4397C342.811 42.1942 348.252 51.6537 346.623 60.6484C344.213 73.959 323.766 80.0024 312.489 81.1047C304.326 81.9026 287.979 81.647 285.052 71.502C282.022 60.9955 294.013 49.8011 300.506 43.5005C320.999 23.614 349.844 8.72187 378.175 4" stroke="#1E1E1E" stroke-width="7" stroke-linecap="round"/>
</svg>
